<svg preserveAspectRatio="none" overflow="visible" style="display: block;" width="24" height="24" viewBox="0 0 24 24" fill="none" xmlns="http://www.w3.org/2000/svg">
<g id="IcGearFilled">
<path id="Vector" fill-rule="evenodd" clip-rule="evenodd" d="M20.3189 12.7791C20.1236 12.631 19.9837 12.3517 19.9838 11.9927C19.9839 11.6333 20.1236 11.3534 20.3189 11.2052L20.4912 11.0752C21.6111 10.2255 21.9216 8.67415 21.2154 7.45875L20.5556 6.32437C19.8501 5.11068 18.3556 4.60545 17.0588 5.14312L16.8666 5.22281C16.631 5.3205 16.3131 5.29957 15.9959 5.11617C15.6716 4.92855 15.4895 4.65793 15.4568 4.40719L15.4322 4.215C15.2515 2.83339 14.074 1.79977 12.6806 1.79977H11.3013C9.91031 1.79977 8.73507 2.83213 8.55563 4.21148L8.53102 4.39898C8.49827 4.65093 8.31543 4.92301 7.98961 5.11031C7.67127 5.29328 7.3536 5.31473 7.11773 5.21695L6.93258 5.13961C5.64082 4.60412 4.15137 5.10724 3.44859 6.31617L2.77594 7.47398C2.07466 8.68061 2.38282 10.2205 3.4943 11.0646L3.64664 11.1806C3.84869 11.3341 3.99222 11.6229 3.99234 11.9927C3.9924 12.3623 3.84885 12.6516 3.64664 12.8048L3.49195 12.922C2.37786 13.7668 2.0686 15.3097 2.77125 16.5185L3.44039 17.6705C4.14388 18.88 5.63371 19.383 6.92672 18.8482L7.11422 18.7709C7.35074 18.6731 7.66878 18.694 7.98727 18.8775C8.31394 19.0657 8.49702 19.3385 8.52984 19.5912L8.55445 19.7822C8.73432 21.1651 9.91258 22.1997 11.3072 22.1998H12.6748C14.0719 22.1995 15.2526 21.1629 15.4334 19.7775L15.458 19.583C15.4909 19.3316 15.6734 19.0608 15.9982 18.8728C16.316 18.689 16.6338 18.6674 16.8701 18.765L17.0646 18.8447C18.3627 19.3812 19.8575 18.8764 20.5638 17.6623L21.2201 16.5337C21.9278 15.3161 21.6152 13.7618 20.4923 12.9115L20.3189 12.7791ZM12 14.4C13.3255 14.4 14.4 13.3255 14.4 12C14.4 10.6745 13.3255 9.6 12 9.6C10.6745 9.6 9.6 10.6745 9.6 12C9.6 13.3255 10.6745 14.4 12 14.4Z" fill="#474351"/>
</g>
</svg>
